<?xml version="1.0" encoding="utf-8"?>
<!-- Generator: Adobe Illustrator 28.0.0, SVG Export Plug-In . SVG Version: 6.00 Build 0)  -->
<svg version="1.1" id="Layer_1" xmlns="http://www.w3.org/2000/svg" xmlns:xlink="http://www.w3.org/1999/xlink" x="0px" y="0px"
	 viewBox="0 0 20 20" style="enable-background:new 0 0 20 20;" xml:space="preserve">
<path d="M15.9,19.5c-0.4,0-0.7-0.2-1-0.4c-0.5-0.4-1-0.8-1.5-1.2C12.2,17,11,16,9.8,15c-0.1-0.1-0.2-0.1-0.3,0
	c-0.6,0.7-1.2,1.4-1.8,2.1c0,0-0.1,0.1-0.1,0.1c-0.1,0.1-0.3,0.2-0.5,0.1c-0.2-0.1-0.3-0.2-0.3-0.4c0-0.7-0.1-1.4-0.1-2.1
	c0-0.5-0.1-1.1-0.1-1.6c0-0.3-0.1-0.4-0.4-0.5c-1.9-0.8-3.8-1.7-5.7-2.5C0.2,10.1,0,10,0,9.7c0-0.3,0.1-0.5,0.4-0.6
	c0.4-0.2,0.9-0.4,1.3-0.6c3.6-1.7,7.2-3.4,10.7-5.1c2-0.9,4-1.9,6-2.8c0,0,0.1,0,0.1-0.1c0.3-0.1,0.7-0.2,1,0.1
	C20,0.9,20,1.3,20,1.7c-0.2,1.1-0.4,2.1-0.5,3.2c-0.4,2.5-0.9,5.1-1.3,7.6c-0.3,2-0.7,3.9-1.1,5.9c0,0.1,0,0.2-0.1,0.3
	C16.9,19.2,16.5,19.5,15.9,19.5z M15.2,17.7c0.8-5,1.6-9.9,2.4-14.9c-4.5,2.6-8.8,5.3-13.2,8c0.1,0,0.1,0.1,0.1,0.1
	C5.3,11.3,6.2,11.6,7,12c0.1,0,0.2,0,0.3-0.1c0.5-0.4,0.9-0.8,1.4-1.1c1.5-1.3,3-2.6,4.6-3.9c0.5-0.4,0.9-0.8,1.4-1.2
	c0.2-0.1,0.4-0.1,0.5,0c0.1,0.1,0.2,0.3,0.1,0.5c-0.1,0.1-0.1,0.3-0.2,0.4c-1.7,2.2-3.4,4.5-5,6.7c-0.1,0.2-0.1,0.2,0,0.3
	c1.3,1.1,2.6,2.1,4,3.2C14.4,17.1,14.8,17.4,15.2,17.7z"/>
</svg>
