<?xml version="1.0" encoding="utf-8"?>
<!-- Generator: Adobe Illustrator 28.0.0, SVG Export Plug-In . SVG Version: 6.00 Build 0)  -->
<svg version="1.1" id="Geofences_1" xmlns="http://www.w3.org/2000/svg" xmlns:xlink="http://www.w3.org/1999/xlink" x="0px"
	 y="0px" viewBox="0 0 24 24" style="enable-background:new 0 0 24 24;" xml:space="preserve">
<g>
	<path d="M12.2,0.3c-0.5,0-1,0-1.5,0c-0.5,0-0.8,0.3-0.8,0.8c0,0.3,0,0.6,0,0.9C9.8,2.5,9.5,2.9,9,3.1C8.7,3.2,8.5,3.3,8.3,3.4
		C7.6,3.7,7.1,3.6,6.6,3.2C6.4,3,6.2,2.8,5.9,2.5c-0.3-0.3-0.7-0.3-1,0C4.2,3.3,3.5,4,2.8,4.7c-0.3,0.3-0.3,0.7,0,1
		C3,5.9,3.2,6.2,3.4,6.4C3.9,6.9,4,7.3,3.7,7.9C3.6,8.3,3.4,8.6,3.3,9C3.1,9.5,2.7,9.8,2.1,9.7c-0.3,0-0.7,0-1,0
		c-0.5,0-0.8,0.3-0.8,0.8c0,1,0,1.9,0,2.9c0,0.5,0.3,0.8,0.8,0.8c0.3,0,0.7,0,1,0c0.5,0,0.9,0.2,1.1,0.6C3.6,15.6,4,15.6,4.5,15
		c0.5-0.6,0.1-1.6-0.7-1.8c-0.4-0.1-0.7,0-1.1-0.1c-0.2,0-0.5-0.1-0.7-0.2c-0.5-0.3-0.4-1.6,0.1-1.9c0.2-0.1,0.4-0.2,0.6-0.2
		c0.3,0,0.5,0,0.8,0c0.5,0,0.9-0.2,1.1-0.7c0.3-0.7,0.5-1.3,0.8-2C5.7,7.5,5.6,7,5.1,6.5C5,6.3,4.8,6.1,4.6,6c-0.4-0.4-0.4-1,0-1.4
		c0.1-0.1,0.1-0.1,0.2-0.2C5.3,4,5.6,3.9,6,4.2c0.2,0.2,0.5,0.4,0.7,0.6c0.5,0.5,1.1,0.6,1.8,0.3C9.1,5,9.6,4.7,10.2,4.5
		c0.6-0.2,0.9-0.7,0.9-1.3c0-0.3,0-0.6,0-0.8c0-0.5,0.3-0.8,0.8-0.8c0.3,0,0.6,0,0.8,0c0.4,0,0.6,0.4,0.6,0.8c0,0.3,0,0.6,0,0.8
		c0,0.4,0.1,0.8,0.5,1c0.2,0.2,0.5,0.3,0.8,0.4C15,4.8,15.5,5,15.9,5.2c0.6,0.3,1.1,0.2,1.6-0.3c0.2-0.2,0.4-0.4,0.6-0.6
		C18.6,4,19,4,19.4,4.3c0.2,0.2,0.4,0.3,0.5,0.5c0.3,0.3,0.2,0.7,0,1c-0.2,0.2-0.4,0.5-0.7,0.7C18.7,7,18.7,7.6,19,8.2
		c0.3,0.5,0.5,1.1,0.7,1.7c0.2,0.7,0.6,1,1.3,1c0.3,0,0.6,0,0.9,0c0.4,0.1,0.7,0.3,0.7,0.8c0,0.2,0,0.4,0,0.6c0,0.5-0.3,0.8-0.8,0.8
		c-0.3,0-0.5,0-0.8,0c-0.6,0-1.1,0.3-1.3,0.9c-0.3,0.6-0.5,1.2-0.8,1.9c-0.2,0.5-0.2,1,0.3,1.5c0.2,0.2,0.4,0.4,0.5,0.5
		c0.1,0.1,0.3,0.3,0.3,0.5c0.2,0.3,0.1,0.5-0.1,0.8c-0.2,0.2-0.3,0.3-0.5,0.5c-0.3,0.3-0.7,0.4-1,0c-0.3-0.2-0.5-0.5-0.8-0.7
		c-0.2-0.2-0.4-0.3-0.6-0.4c-0.3-0.1-0.6-0.1-1,0.1c-0.6,0.3-1.3,0.5-1.9,0.8c-0.5,0.2-0.9,0.6-0.9,1.3c0,0.2,0,0.3,0,0.5
		c0,0.1,0,0.2,0,0.3c0,0.4-0.2,0.7-0.6,0.8c-0.3,0-0.6,0-0.9,0c-0.4-0.1-0.7-0.4-0.7-0.8c0-0.3,0-0.5,0-0.8c0-0.5-0.2-0.9-0.6-1.1
		c-0.3-0.2-0.7-0.3-1-0.4c-0.5-0.1-1.2,0.4-1.2,0.9c0,0.2,0.1,0.4,0.3,0.4c0.2,0.1,0.4,0.2,0.6,0.3c0.5,0.2,0.8,0.6,0.8,1.1
		c0,0.3,0,0.6,0,0.9c0,0.4,0.2,0.6,0.6,0.7c0.1,0,0.3,0,0.4,0c0.9,0,1.9,0,2.8,0c0.6,0,0.8-0.3,0.8-0.8c0-0.3,0-0.5,0-0.8
		c0-0.5,0.2-0.8,0.7-1.1c0.4-0.2,0.9-0.4,1.3-0.5c0.5-0.2,0.9-0.1,1.3,0.3c0.2,0.2,0.5,0.5,0.7,0.7c0.3,0.3,0.7,0.3,1,0
		c0.7-0.7,1.4-1.4,2.1-2.1c0.3-0.3,0.3-0.7,0-1.1c-0.3-0.3-0.5-0.5-0.8-0.8c-0.3-0.3-0.4-0.7-0.2-1c0.2-0.5,0.4-1,0.6-1.6
		c0.2-0.4,0.5-0.6,0.9-0.6c0.4,0,0.7,0,1.1,0c0.5,0,0.7-0.2,0.7-0.7c0-1,0-2.1,0-3.1c0-0.5-0.3-0.7-0.8-0.7c-0.3,0-0.6,0-0.9,0
		c-0.5,0-0.9-0.2-1.1-0.6c-0.2-0.5-0.5-1-0.6-1.5c-0.2-0.5,0-0.9,0.3-1.2c0.2-0.2,0.5-0.5,0.7-0.7C22,5.4,22,5,21.6,4.7
		c-0.7-0.7-1.4-1.4-2.1-2.1c-0.4-0.4-0.7-0.4-1.1,0c-0.3,0.3-0.5,0.5-0.8,0.8c-0.3,0.3-0.6,0.4-1,0.3c-0.5-0.2-1.1-0.4-1.6-0.6
		c-0.4-0.2-0.5-0.5-0.6-0.9c0-0.3,0-0.7,0-1c0-0.5-0.3-0.8-0.8-0.8C13.2,0.3,12.7,0.3,12.2,0.3z"/>
	<path d="M8.3,10.6c0.1,0.2,0.1,0.5,0.2,0.7c0.2,0.5,0.1,0.9-0.1,1.3c-0.1,0.2-0.3,0.4-0.5,0.6c-2.4,2.4-4.8,4.8-7.2,7.2
		c-0.1,0.1-0.3,0.3-0.4,0.5c-0.4,0.6-0.4,1.2,0.1,1.8c0.2,0.2,0.4,0.4,0.6,0.6c0.6,0.5,1.2,0.5,1.8,0c0.1,0,0.1-0.1,0.2-0.1
		c2.5-2.5,5-5,7.5-7.5c0.2-0.2,0.4-0.4,0.7-0.5c0.3-0.2,0.6-0.2,0.9,0c0.9,0.4,1.6,0.3,2.2-0.4c0.9-0.9,1.8-1.8,2.7-2.7
		c0.7-0.7,0.8-1.5,0.3-2.3c-0.2-0.3-0.5-0.6-0.7-0.8c-0.1-0.1-0.2-0.1-0.3,0.1c-0.1,0.1-0.1,0.3-0.2,0.5c-0.1,0.5-0.3,0.9-0.7,1.3
		c-0.3,0.3-0.5,0.5-0.8,0.8c-0.4,0.3-0.8,0.5-1.3,0.3c-0.9-0.3-1.4-0.9-1.6-1.8c-0.1-0.3,0-0.7,0.3-0.9c0.4-0.4,0.8-0.8,1.2-1.2
		c0.2-0.2,0.5-0.3,0.9-0.4c0,0,0.1,0,0.1,0c0.2,0,0.4-0.1,0.4-0.3c0-0.1-0.1-0.3-0.2-0.4c-0.3-0.4-0.7-0.7-1.2-0.7
		c-0.7-0.1-1.2,0.1-1.7,0.5c-0.9,0.9-1.9,1.9-2.8,2.8C8.5,9.7,8.3,10.1,8.3,10.6z"/>
</g>
</svg>
